# xmcd
#
# Track frame offsets:
# 150
# 6002
# 11786
# 16889
# 24914
# 34668
# 49372
# 62284
# 68884
# 76536
# 82686
# 94167
# 103394
# 112708
# 121869
# 132821
# 141900
# 152326
# 165158
# 179795
# 190458
# 200439
# 214093
# 221907
# 236469
# 246821
# 260028
# 273839
# 283752
# 293058
# 302590
# 314378
#
# Disc length: 4374 seconds
#
#
# Revision: 0
# Processed by: cddbd v1.5.2PL0 Copyright (c) Steve Scherf et al.
# Submitted via: FreeRIP 2.951 
#
DISCID=b2111420
DTITLE=Bambulka - Bambulkine dobrodruzstva
DYEAR=2000
DGENRE=Blues
TTITLE0=Prekvapenie
TTITLE1=Zoznamovacia piesen
TTITLE2=Ja som mala Bambulka
TTITLE3=Piesen o zdraveni
TTITLE4=Cistota - pol zivota
TTITLE5=Velke upratovanie
TTITLE6=Lavicka
TTITLE7=Dve zazracne slova
TTITLE8=Chora piesen
TTITLE9=Smutne hracky
TTITLE10=Dobru chut
TTITLE11=Kamarati
TTITLE12=Piesen pre sedmospacov
TTITLE13=Piesen pre klamarov
TTITLE14=Silaci
TTITLE15=Zvedavec
TTITLE16=Ladova piesen
TTITLE17=Telefon
TTITLE18=Maskara
TTITLE19=Straka
TTITLE20=Dve srdiecka
TTITLE21=Piesen o zvieratkach
TTITLE22=Roztopasnica
TTITLE23=Obchodnicka piesen
TTITLE24=Hanbliva piesen
TTITLE25=Odvravacia piesen
TTITLE26=Kucharska piesen
TTITLE27=Lesna piesen
TTITLE28=Sarkan
TTITLE29=Mokra piesen
TTITLE30=Babatko
TTITLE31=Piesen na rozlucku
EXTD=
EXTT0=
EXTT1=
EXTT2=
EXTT3=
EXTT4=
EXTT5=
EXTT6=
EXTT7=
EXTT8=
EXTT9=
EXTT10=
EXTT11=
EXTT12=
EXTT13=
EXTT14=
EXTT15=
EXTT16=
EXTT17=
EXTT18=
EXTT19=
EXTT20=
EXTT21=
EXTT22=
EXTT23=
EXTT24=
EXTT25=
EXTT26=
EXTT27=
EXTT28=
EXTT29=
EXTT30=
EXTT31=
PLAYORDER=
